<svg viewBox="0 0 112 112" fill="none" xmlns="http://www.w3.org/2000/svg">
  <path d="M63.1787 24.7422L110.875 6.22363L92.123 40.6143L104.417 72.3604L83.5645 69.9482L74.6943 101.927L50.7305 80.374L20.3857 107.062L22.6416 72.126L0 61.1553L23.8867 52.2861L1.79004 17.4287L35.791 24.3535L40.3037 4.66797L63.1787 24.7422ZM47.1514 45.75L30.2666 38.125L42.7939 51.1963L21.4746 59.2109L44.6611 58.4326L38.5146 75.7832L50.8857 62.0898L66.4473 83.0977L59.9111 58.666L80.9971 55.9424L63.1787 52.6748L74.2275 37.0361L56.332 48.4736L55.3203 28.7881L47.1514 45.75Z" fill="#F8C642"/>
</svg>
